<?xml version="1.0" encoding="utf-8"?>
<!-- Generator: Adobe Illustrator 25.0.1, SVG Export Plug-In . SVG Version: 6.00 Build 0)  -->
<svg version="1.1" id="Layer_1" xmlns="http://www.w3.org/2000/svg" xmlns:xlink="http://www.w3.org/1999/xlink" x="0px" y="0px"
	 viewBox="0 0 1602.2 225.1" style="enable-background:new 0 0 1602.2 225.1;" xml:space="preserve">
<style type="text/css">
	.st0{fill:#FFFFFF;}
</style>
<g>
	<g>
		<path class="st0" d="M135.5,20.1L97.3,40.5L25.1,2C13.7-4,0,4.2,0,17.1v150c0,5.3,2.9,10.1,7.6,12.6l22,11.7V46.5
			c0-2.2,2.3-3.5,4.2-2.5l25.4,13.5l38.1,20.3L160.8,44c1.9-1,4.2,0.4,4.2,2.5v105.6c0,1.1-0.6,2-1.5,2.5l-28,15l-32.9,17.5
			c-3.4,1.8-7.4,1.8-10.7,0l-32.8-17.5V207l30.1,16c5,2.7,11.1,2.7,16.1,0l59.7-31.9l21.9-11.7c4.7-2.5,7.6-7.3,7.6-12.6V17.1
			C194.6,4.2,180.8-4,169.4,2L135.5,20.1z"/>
		<path class="st0" d="M98.6,114.5l36.9-19.7v37.4L100,151.2c-1.7,0.9-3.7,0.9-5.4,0l-35.5-18.9V94.9l36.8,19.6
			C96.8,115,97.8,115,98.6,114.5z"/>
	</g>
	<g>
		<path class="st0" d="M402.8,64.5c1.5-2.7,3.2-4.7,5.1-5.8c1.9-1.1,4.6-1.7,8.1-1.7h15.2c9.9,0,14.9,3.9,14.9,11.6v91.5
			c0,2.5-0.6,4.5-1.9,5.9c-1.3,1.4-3.1,2.1-5.6,2.1H430c-2.5,0-4.4-0.7-5.7-2.1c-1.3-1.4-2-3.4-2-5.9V84.4c0-1.1-0.2-1.9-0.7-2.4
			s-1.1-0.7-1.7-0.7c-1.2,0-2.4,1-3.6,3.1l-44.1,77c-1.3,2.3-2.6,4-4,5.1c-1.4,1.1-3.2,1.6-5.6,1.6H354c-2.3,0-4.1-0.5-5.3-1.6
			c-1.3-1.1-2.5-2.7-3.8-4.9l-44-77c-1.3-2.2-2.5-3.3-3.6-3.3c-0.7,0-1.2,0.2-1.7,0.7c-0.5,0.4-0.7,1.2-0.7,2.3v75.7
			c0,2.5-0.6,4.5-1.9,6c-1.3,1.5-3.1,2.2-5.6,2.2h-8.5c-2.6,0-4.6-0.7-5.9-2.2c-1.3-1.5-2-3.5-2-6V68.6c0-7.7,5-11.6,14.9-11.6h15.4
			c3.5,0,6.2,0.6,8.1,1.8c1.9,1.2,3.6,3.2,5.1,5.9l41.7,74.4c1,1.7,2,2.6,2.9,2.6c1,0,1.9-0.8,2.8-2.5L402.8,64.5z"/>
		<path class="st0" d="M538.7,168.9c-10.2,0-19.1-0.2-26.6-0.7c-7.5-0.5-13.8-1.4-19-2.9c-5.2-1.4-9.4-3.4-12.7-5.9
			c-3.3-2.5-5.8-5.8-7.6-9.9s-3-9.1-3.7-15c-0.7-5.9-1-12.9-1-20.9v-2.3c0-8.1,0.3-15,1-20.9c0.7-5.9,1.9-10.9,3.7-15
			c1.8-4.1,4.3-7.4,7.6-10c3.3-2.6,7.5-4.5,12.7-5.9c5.2-1.4,11.5-2.3,19-2.8c7.5-0.5,16.3-0.7,26.6-0.7h4.9
			c10.2,0,19.1,0.2,26.6,0.7c7.5,0.5,13.8,1.4,19,2.8c5.2,1.4,9.4,3.3,12.7,5.9c3.3,2.6,5.8,5.9,7.6,10c1.8,4.1,3,9.1,3.7,15
			c0.7,5.9,1,12.9,1,20.9v2.3c0,8.1-0.3,15-1,20.9c-0.7,5.9-1.9,10.9-3.7,15c-1.8,4.1-4.3,7.4-7.6,10c-3.3,2.6-7.5,4.5-12.7,5.9
			c-5.2,1.4-11.5,2.3-19,2.8c-7.5,0.5-16.3,0.7-26.6,0.7H538.7z M542.8,149.8c10.8,0,19.3-0.3,25.5-1c6.2-0.7,10.9-2.2,14.1-4.7
			c3.2-2.5,5.2-6.2,6-11.1c0.8-4.9,1.2-11.6,1.2-20.1V112c0-8.5-0.4-15.2-1.2-20.2c-0.8-5-2.8-8.7-6-11.2c-3.2-2.5-7.8-4.1-14.1-4.7
			c-6.2-0.7-14.7-1-25.5-1h-3.3c-10.8,0-19.3,0.3-25.5,1c-6.2,0.7-10.9,2.2-14.1,4.7c-3.2,2.5-5.2,6.2-6,11.2
			c-0.8,5-1.2,11.7-1.2,20.2v0.8c0,8.5,0.4,15.2,1.2,20.1s2.8,8.6,6,11.1c3.2,2.5,7.8,4.1,14.1,4.7c6.2,0.7,14.7,1,25.5,1H542.8z"/>
		<path class="st0" d="M766.7,162.1c0,1.9-0.7,3.3-2,4.4c-1.4,1.1-3.1,1.6-5.2,1.6h-10.3c-2.1,0-3.8-0.3-5.1-1
			c-1.4-0.7-3.1-1.7-5.1-3.1L682.5,125c-1.5-1.1-2.9-1.9-4.2-2.5c-1.3-0.6-2.8-0.9-4.5-0.9h-7.5c-2,0-3.4,0.4-4.4,1.2
			c-1,0.8-1.5,2.2-1.5,4.2v33.2c0,2.5-0.6,4.5-1.9,5.9c-1.3,1.4-3.2,2.1-5.8,2.1H644c-2.6,0-4.6-0.7-5.9-2.2s-2-3.5-2-6V65
			c0-2.5,0.6-4.5,1.9-5.9c1.3-1.4,3.2-2.1,5.8-2.1h9c2.6,0,4.5,0.7,5.8,2.2c1.3,1.5,1.9,3.5,1.9,6v31.2c0,2,0.5,3.3,1.6,4.2
			c1,0.8,2.5,1.2,4.5,1.2h8.3c1.6,0,3-0.2,4.2-0.7c1.1-0.4,2.5-1.2,4-2.3l53-37.6c2.1-1.5,3.8-2.6,5.2-3.3c1.4-0.7,3.1-1,5.1-1h8.8
			c2.2,0,3.9,0.5,5.2,1.6s2,2.4,2,4.2c0,2.6-1.3,4.8-3.8,6.5l-54.6,38.4c-1.6,1.2-2.5,2.3-2.5,3.4c0,0.5,0.2,1.1,0.5,1.7
			c0.3,0.6,0.9,1.2,1.8,1.7l59,41C765.4,157.3,766.7,159.4,766.7,162.1z"/>
		<path class="st0" d="M912,134.9c0,6.9-0.9,12.5-2.6,16.8c-1.7,4.4-4.7,7.8-8.7,10.4c-4.1,2.6-9.6,4.3-16.5,5.3
			c-6.9,1-15.5,1.5-25.7,1.5H818c-8.9,0-15.9-0.1-21-0.3c-5.1-0.2-8.9-0.7-11.4-1.4c-2.6-0.7-4.2-1.7-4.8-3.1c-0.7-1.4-1-3.1-1-5.3
			v-1.6c0-4.7,2.8-7,8.5-7H865c4.4,0,8-0.2,11-0.6c3-0.4,5.4-1.1,7.3-2.2c1.9-1.1,3.2-2.5,3.9-4.3c0.8-1.7,1.1-4,1.1-6.9v-2.5
			c0-4.6-1.6-7.8-4.8-9.7c-3.2-1.9-8.9-2.9-17.1-2.9H820c-7.3,0-13.4-0.6-18.3-1.7c-4.9-1.1-8.9-2.9-11.9-5.3
			c-3-2.4-5.1-5.5-6.4-9.2c-1.3-3.8-1.9-8.3-1.9-13.5v-3.3c0-7,1-12.6,2.9-16.8c2-4.3,5.1-7.5,9.5-9.7c4.4-2.2,10.1-3.7,17.2-4.4
			c7.1-0.7,15.8-1.1,26.2-1.1h28.9c9.3,0,16.7,0.1,22.2,0.4c5.6,0.3,9.8,0.8,12.7,1.6c2.9,0.8,4.9,1.8,5.8,3.2
			c0.9,1.4,1.4,3.1,1.4,5.2v1c0,2.9-0.8,4.9-2.5,5.8c-1.6,0.9-3.8,1.4-6.4,1.4h-72.2c-4.4,0-8,0.2-10.8,0.7
			c-2.8,0.4-5.1,1.1-6.8,2.1c-1.7,1-2.9,2.3-3.5,3.9c-0.7,1.6-1,3.7-1,6v2.3c0,2.2,0.3,4,1,5.6c0.7,1.5,1.8,2.8,3.4,3.8
			c1.6,1,3.7,1.7,6.4,2.2c2.7,0.5,6.1,0.7,10.2,0.7H871c7.3,0,13.6,0.5,18.8,1.4c5.2,0.9,9.5,2.5,12.8,4.8c3.3,2.3,5.7,5.4,7.2,9.2
			c1.5,3.9,2.3,8.7,2.3,14.6V134.9z"/>
		<path class="st0" d="M1068.6,160.1c0,2.5-0.6,4.5-1.9,5.9c-1.3,1.4-3.2,2.1-5.8,2.1h-9c-2.6,0-4.6-0.7-5.8-2.2s-1.9-3.5-1.9-6
			v-33.3c0-2.1-0.5-3.5-1.5-4.3c-1-0.8-2.5-1.2-4.5-1.2H964c-2.2,0-3.7,0.4-4.7,1.3c-0.9,0.9-1.4,2.2-1.4,4.1v33.7
			c0,2.5-0.6,4.5-1.9,5.9c-1.2,1.4-3.2,2.1-5.8,2.1h-8.8c-2.6,0-4.6-0.7-5.9-2.2s-2-3.5-2-6V65c0-2.5,0.6-4.5,1.9-5.9
			c1.3-1.4,3.2-2.1,5.8-2.1h9c2.6,0,4.6,0.7,5.8,2.2c1.3,1.5,1.9,3.5,1.9,6v30.2c0,2,0.5,3.3,1.5,4.2c1,0.8,2.5,1.2,4.5,1.2h74.2
			c2.2,0,3.7-0.4,4.7-1.2c0.9-0.8,1.4-2.2,1.4-4V65c0-2.5,0.6-4.5,1.9-5.9c1.2-1.4,3.2-2.1,5.8-2.1h8.8c2.6,0,4.6,0.7,5.9,2.2
			c1.3,1.5,2,3.5,2,6V160.1z"/>
		<path class="st0" d="M1224.7,62.8c0,1.2-0.4,2.3-1.1,3.3c-0.7,1-1.6,2.2-2.5,3.4l-51.2,56.1c-0.9,0.9-1.4,1.8-1.6,2.7
			c-0.2,0.9-0.3,1.9-0.3,3v28.8c0,2.5-0.6,4.5-1.9,5.9c-1.3,1.4-3.2,2.1-5.8,2.1h-9c-2.5,0-4.4-0.7-5.7-2.2c-1.3-1.5-2-3.5-2-6
			v-28.4c0-1.1-0.1-2.1-0.4-3.1c-0.3-1-0.8-1.9-1.7-2.8L1091,69.7c-1.1-1.2-2-2.3-2.7-3.4c-0.7-1-1.1-2.2-1.1-3.3
			c0-1.9,0.7-3.3,2-4.4c1.4-1.1,3.2-1.6,5.5-1.6h9c2.1,0,3.8,0.3,5.2,1c1.4,0.7,2.7,1.6,3.9,2.9l40,44.5c0.8,0.9,1.4,1.5,1.9,1.8
			c0.5,0.3,1,0.5,1.6,0.5c0.5,0,1.1-0.2,1.6-0.5c0.5-0.3,1.1-0.9,1.9-1.8l39.6-44.3c1.3-1.4,2.6-2.5,4-3.1c1.4-0.7,3.1-1,5.1-1h8.8
			c2.2,0,3.9,0.5,5.3,1.6S1224.7,61,1224.7,62.8z"/>
		<path class="st0" d="M1357.6,162.1c0,1.9-0.7,3.3-2.1,4.4c-1.4,1.1-3.2,1.6-5.4,1.6h-8.8c-2.5,0-4.4-0.5-5.6-1.6
			c-1.3-1-2.5-2.8-3.8-5.3l-6.4-11.6c-0.9-1.5-1.7-2.5-2.6-3c-0.9-0.5-2.2-0.7-3.9-0.7h-68.2c-1.7,0-3.1,0.2-3.9,0.7
			c-0.9,0.5-1.7,1.4-2.6,2.9l-6.5,11.6c-1.5,2.6-2.9,4.4-4.1,5.5c-1.2,1-3.1,1.6-5.6,1.6h-8.3c-5,0-7.5-2-7.5-6
			c0-1.5,0.5-3.3,1.6-5.4l52.8-93.8c1.2-2.2,2.5-3.7,3.8-4.6c1.4-0.9,3.2-1.3,5.6-1.3h18.5c2.5,0,4.4,0.4,5.8,1.2
			c1.4,0.8,2.6,2.3,3.8,4.5l51.8,93.8C1357.1,158.4,1357.6,160.2,1357.6,162.1z M1312.5,125.9c0-0.8-0.3-1.7-0.8-2.8l-23.9-45.3
			c-0.9-1.5-1.7-2.3-2.6-2.3c-1.1,0-2,0.7-2.6,2.1l-24.5,45.4c-0.7,1.2-1,2.2-1,2.9c0,1.6,1.1,2.5,3.4,2.5h48.4
			C1311.3,128.5,1312.5,127.7,1312.5,125.9z"/>
		<path class="st0" d="M1399,159.9c0,2.5-0.6,4.5-1.9,6c-1.3,1.5-3.1,2.2-5.6,2.2h-10c-2.6,0-4.5-0.8-5.8-2.3
			c-1.3-1.5-1.9-3.5-1.9-6v-8.7c0-2.5,0.6-4.5,1.8-6c1.2-1.5,3.1-2.3,5.7-2.3h10c2.5,0,4.4,0.8,5.7,2.3c1.3,1.5,2,3.5,2,6V159.9z"/>
		<path class="st0" d="M1560.2,162.1c0,1.9-0.7,3.3-2.1,4.4c-1.4,1.1-3.2,1.6-5.4,1.6h-8.8c-2.5,0-4.4-0.5-5.6-1.6
			c-1.3-1-2.5-2.8-3.8-5.3l-6.4-11.6c-0.9-1.5-1.7-2.5-2.6-3s-2.2-0.7-3.9-0.7h-68.2c-1.7,0-3.1,0.2-3.9,0.7
			c-0.9,0.5-1.7,1.4-2.6,2.9l-6.5,11.6c-1.5,2.6-2.9,4.4-4.1,5.5c-1.2,1-3.1,1.6-5.6,1.6h-8.3c-5,0-7.5-2-7.5-6
			c0-1.5,0.5-3.3,1.6-5.4l52.8-93.8c1.2-2.2,2.5-3.7,3.8-4.6c1.4-0.9,3.2-1.3,5.6-1.3h18.5c2.5,0,4.4,0.4,5.8,1.2
			c1.4,0.8,2.6,2.3,3.8,4.5l51.8,93.8C1559.6,158.4,1560.2,160.2,1560.2,162.1z M1515,125.9c0-0.8-0.3-1.7-0.8-2.8l-23.9-45.3
			c-0.9-1.5-1.7-2.3-2.6-2.3c-1.1,0-2,0.7-2.6,2.1l-24.5,45.4c-0.7,1.2-1,2.2-1,2.9c0,1.6,1.1,2.5,3.4,2.5h48.4
			C1513.8,128.5,1515,127.7,1515,125.9z"/>
		<path class="st0" d="M1602.2,160.1c0,2.5-0.6,4.5-1.9,5.9c-1.3,1.4-3.1,2.1-5.6,2.1h-9c-2.6,0-4.6-0.7-5.9-2.2c-1.3-1.5-2-3.5-2-6
			V65c0-2.5,0.6-4.5,1.9-5.9c1.3-1.4,3.2-2.1,5.8-2.1h9c2.5,0,4.4,0.7,5.7,2.2c1.3,1.5,2,3.5,2,6V160.1z"/>
	</g>
</g>
</svg>
